<?xml version="1.0" standalone="no"?>
<!DOCTYPE svg PUBLIC "-//W3C//DTD SVG 20010904//EN"
 "http://www.w3.org/TR/2001/REC-SVG-20010904/DTD/svg10.dtd">
<svg version="1.0" xmlns="http://www.w3.org/2000/svg"
 width="512.000000pt" height="512.000000pt" viewBox="0 0 512.000000 512.000000"
 preserveAspectRatio="xMidYMid meet">

<g transform="translate(0.000000,512.000000) scale(0.100000,-0.100000)"
fill="#000000" stroke="none">
<path fill='#07c972' d="M1780 5105 c-444 -56 -864 -263 -1183 -582 -604 -603 -766 -1518
-406 -2281 297 -631 891 -1067 1572 -1157 506 -66 1023 64 1437 361 49 35 93
64 97 64 4 0 339 -331 743 -734 775 -775 776 -775 865 -776 44 0 131 36 157
66 29 33 58 107 58 149 0 89 -1 90 -776 865 -403 404 -734 739 -734 743 0 4
29 49 65 99 386 537 482 1237 255 1859 -101 279 -265 535 -477 746 -306 304
-682 496 -1113 568 -136 23 -418 28 -560 10z m480 -430 c459 -75 845 -319
1092 -692 184 -277 269 -555 270 -883 0 -159 -11 -255 -47 -400 -141 -563
-592 -1014 -1155 -1155 -145 -36 -241 -47 -400 -47 -328 1 -606 86 -883 270
-442 293 -707 790 -707 1325 0 783 557 1442 1335 1577 130 23 368 25 495 5z"/>
</g>
</svg>
